<?xml version="1.0" encoding="UTF-8"?>
<svg width="750px" height="1061px" viewBox="0 0 750 1061" version="1.1" xmlns="http://www.w3.org/2000/svg" xmlns:xlink="http://www.w3.org/1999/xlink">
    <!-- Generator: Sketch 51.2 (57519) - http://www.bohemiancoding.com/sketch -->
    <title>register_bg</title>
    <desc>Created with Sketch.</desc>
    <defs>
        <rect id="path-1" x="0" y="0" width="750" height="1334"></rect>
        <linearGradient x1="39.6176266%" y1="-5.33853891%" x2="72.6078134%" y2="59.5443013%" id="linearGradient-3">
            <stop stop-color="#151B51" offset="0%"></stop>
            <stop stop-color="#331A4A" offset="59.2153839%"></stop>
            <stop stop-color="#351A49" stop-opacity="0" offset="100%"></stop>
        </linearGradient>
        <path d="M14.4414062,1470.81047 C250.394531,1786.67734 502.477865,1792.2948 770.691406,1487.66286 C789.201823,1487.66286 791.459635,991.775238 777.464844,0 L0,0 L14.4414062,1470.81047 Z" id="path-4"></path>
        <linearGradient x1="50%" y1="0%" x2="50%" y2="100%" id="linearGradient-6">
            <stop stop-color="#FF5746" stop-opacity="0.38391644" offset="0%"></stop>
            <stop stop-color="#B8010C" offset="100%"></stop>
        </linearGradient>
        <path d="M551.266216,589.19909 L523.391888,589.19909 L441.106339,589.19909 C441.106339,589.19909 445.285816,580.679659 447.28082,575.652171 C450.067138,568.634161 448.261604,556.47492 448.261604,556.47492 L557.106339,553.19909 L551.266216,589.19909 Z M460.58624,473.19909 C460.58624,473.19909 543.339454,478.274701 552.68744,480.959135 C552.68744,480.959135 558.03395,507.826033 555.35509,514.548397 C552.68744,521.259482 534.002677,518.732956 523.320865,518.732956 C512.650263,518.732956 461.920066,517.221552 451.238254,518.732956 C440.567652,520.233081 460.58624,473.19909 460.58624,473.19909 Z M677.106339,473.258544 L677.106339,626.19909 L590.106339,626.19909 L596.026922,472.19909 L677.106339,473.258544 Z M723.106339,562.667372 L816.912149,561.19909 L829.106339,591.364603 L723.106339,599.19909 L723.106339,562.667372 Z M723.106339,473.19909 L800.346996,473.19909 L817.106339,519.19909 L770.106339,519.19909 L723.106339,519.19909 L723.106339,473.19909 Z M934.649058,692.02544 C959.360635,685.869689 892.056545,437.169047 893.430097,443.310996 C894.333425,447.382626 539.709301,444.415167 442.781017,443.531831 C428.525765,443.407611 416.015297,454.090463 412.389613,469.466039 L411.684275,472.488706 C411.684275,472.488706 373.138175,697.560096 378.64476,696.028059 C381.107256,695.337952 490.904864,694.882482 612.27249,694.413209 L612.27249,783.975253 C609.03041,801.158909 599.98476,824.305087 574.679214,819.846998 C535.266909,812.904524 531.109127,766.612169 531.109127,766.612169 C504.133044,847.630692 504.133044,893.923048 504.133044,893.923048 L612.27249,893.923048 L718.394916,894.19909 L708.718174,694.02675 C826.262125,693.529873 930.924378,692.950183 934.649058,692.02544 Z" id="path-7"></path>
        <filter x="-4.2%" y="-4.8%" width="108.4%" height="110.4%" filterUnits="objectBoundingBox" id="filter-8">
            <feOffset dx="0" dy="2" in="SourceAlpha" result="shadowOffsetOuter1"></feOffset>
            <feGaussianBlur stdDeviation="7.5" in="shadowOffsetOuter1" result="shadowBlurOuter1"></feGaussianBlur>
            <feColorMatrix values="0 0 0 0 0.635294118   0 0 0 0 0   0 0 0 0 0  0 0 0 0.5 0" type="matrix" in="shadowBlurOuter1"></feColorMatrix>
        </filter>
        <linearGradient x1="32.3807157%" y1="0%" x2="100%" y2="90.3105945%" id="linearGradient-9">
            <stop stop-color="#F15C57" stop-opacity="0.0199558424" offset="0%"></stop>
            <stop stop-color="#D02344" offset="100%"></stop>
        </linearGradient>
        <path d="M311.430544,805.268802 L350.283231,878.92482 C451.290952,848.067677 513.430544,764.751552 513.430544,764.751552 C497.880203,746.240946 440.929206,662.92482 440.929206,662.92482 C409.843968,755.496249 311.430544,805.268802 311.430544,805.268802" id="path-10"></path>
        <filter x="-3.5%" y="-2.3%" width="106.9%" height="106.5%" filterUnits="objectBoundingBox" id="filter-11">
            <feOffset dx="0" dy="2" in="SourceAlpha" result="shadowOffsetOuter1"></feOffset>
            <feGaussianBlur stdDeviation="2" in="shadowOffsetOuter1" result="shadowBlurOuter1"></feGaussianBlur>
            <feColorMatrix values="0 0 0 0 0.645913053   0 0 0 0 0   0 0 0 0 0  0 0 0 0.256651947 0" type="matrix" in="shadowBlurOuter1"></feColorMatrix>
        </filter>
        <linearGradient x1="32.3807157%" y1="0%" x2="100%" y2="90.3105945%" id="linearGradient-12">
            <stop stop-color="#F15C57" stop-opacity="0" offset="0%"></stop>
            <stop stop-color="#D02344" offset="100%"></stop>
        </linearGradient>
        <linearGradient x1="50%" y1="38.0624819%" x2="50%" y2="100%" id="linearGradient-13">
            <stop stop-color="#00ABE0" stop-opacity="0" offset="0%"></stop>
            <stop stop-color="#0098D4" stop-opacity="0.142068614" offset="49.9683887%"></stop>
            <stop stop-color="#0072BD" stop-opacity="0.220420063" offset="100%"></stop>
        </linearGradient>
        <linearGradient x1="32.3807157%" y1="0%" x2="98.6060241%" y2="88.4488357%" id="linearGradient-14">
            <stop stop-color="#F15C57" stop-opacity="0.620612545" offset="0%"></stop>
            <stop stop-color="#D02344" stop-opacity="0" offset="100%"></stop>
        </linearGradient>
        <path d="M383.484825,426.814511 C395.861093,426.460118 448.153519,428.350213 457.581007,428.500561 C486.487666,428.994563 515.394325,430.20809 544.290222,430.669875 C573.282977,431.142398 602.286494,431.045746 633.098022,431.206833 C614.372189,391.096015 619.806985,349.964976 588.758694,311.003249 C582.925705,322.268644 580.095306,330.612982 574.49908,337.915621 C563.898537,351.769157 542.848118,353.723687 523.637996,357.869008 C490.70636,364.978342 466.029156,354.518386 464.425622,330.935158 C462.682183,305.365182 458.893968,308.554717 428.340727,308.608413 C426.651098,308.619152 424.929182,308.705066 423.250314,308.543978 C406.128015,306.922363 394.451275,309.55346 394.429751,324.040607 C394.418989,329.753848 391.244207,335.542264 388.887335,341.169591 C384.356544,351.99468 374.606197,358.36301 357.623804,359.007361 C321.097668,360.381975 288.04765,346.055916 275.057949,322.773385 C273.723464,320.389288 272.614981,317.930017 269.730772,312.130862 C263.230541,318.509932 244.257183,356.397741 239.866298,371.357412 C234.549883,389.495878 230.22357,407.784693 224.734964,428.801258 C231.278243,428.38243 241.028591,427.86695 250.73589,427.072251 C256.095353,426.642684 344.569531,427.931385 383.484825,426.814511" id="path-15"></path>
    </defs>
    <g id="Page-1" stroke="none" stroke-width="1" fill="none" fill-rule="evenodd">
        <g id="register_bg">
            <mask id="mask-2" fill="white">
                <use xlink:href="#path-1"></use>
            </mask>
            <g id="Mask" fill-rule="nonzero"></g>
            <g id="Group-254-Copy-2" mask="url(#mask-2)">
                <g transform="translate(-19.000000, -87.000000)">
                    <mask id="mask-5" fill="white">
                        <use xlink:href="#path-4"></use>
                    </mask>
                    <use id="Mask" stroke="none" fill="url(#linearGradient-3)" fill-rule="nonzero" xlink:href="#path-4"></use>
                    <g id="Group-2" stroke="none" stroke-width="1" fill="none" fill-rule="evenodd" mask="url(#mask-5)">
                        <g transform="translate(-368.000000, -189.000000)">
                            <g id="Fill-9-Copy" stroke="none" fill="none" opacity="0.3" transform="translate(659.106339, 668.699090) rotate(19.000000) translate(-659.106339, -668.699090) ">
                                <use fill="black" fill-opacity="1" filter="url(#filter-8)" xlink:href="#path-7"></use>
                                <use fill="url(#linearGradient-6)" fill-rule="evenodd" xlink:href="#path-7"></use>
                            </g>
                            <g id="Fill-5-Copy" stroke="none" fill="none" opacity="0.490066964" transform="translate(412.430544, 770.924820) rotate(18.000000) translate(-412.430544, -770.924820) ">
                                <use fill="black" fill-opacity="1" filter="url(#filter-11)" xlink:href="#path-10"></use>
                                <use fill="url(#linearGradient-9)" fill-rule="evenodd" xlink:href="#path-10"></use>
                            </g>
                            <path d="M847.885284,672.533594 C847.885284,672.533594 731.159531,709.926158 709.280249,731.796459 C709.280249,731.796459 808.954951,891.214872 951.192033,927.672621 L1050.56225,751.144937 C1050.56225,751.144937 891.665597,781.906843 847.885284,672.533594" id="Fill-7-Copy" stroke="none" fill="url(#linearGradient-12)" fill-rule="evenodd" opacity="0.490066964" transform="translate(879.921250, 800.103108) rotate(-23.000000) translate(-879.921250, -800.103108) "></path>
                            <g id="Group" stroke="none" stroke-width="1" fill="none" fill-rule="evenodd" transform="translate(1135.793469, 348.086363) rotate(-15.000000) translate(-1135.793469, -348.086363) translate(850.793469, 64.086363)">
                                <path d="M410.328476,329.57269 C429.832108,328.163112 474.185408,328.95516 491.204074,325.357381 C507.927229,321.826724 523.763856,314.094184 542.98541,307.113418 C540.688495,319.974137 539.922856,333.43896 535.718561,345.722423 C529.660615,363.38913 520.92965,380.116118 513.662801,397.366664 C510.815163,404.092364 506.234765,407.569322 500.848431,409.341362 C500.848431,409.341362 477.933007,412.764623 459.369633,412.469282 C444.191187,412.227641 319.230934,412.6975 312.568536,411.999423 C309.398524,411.677234 316.960883,348.501304 319.741359,347.185698 L319.741359,203.22083 L251.854751,203.22083 C248.375797,167.350434 243.86256,111.732525 240.773142,72.4388689 C265.703404,72.049557 292.218672,71.9555852 319.741359,72.2777744 L319.741359,203.22083 L410.328476,203.22083 C410.328476,203.22083 411.752295,326.672987 410.328476,329.57269 Z M410.328476,74.9358351 C444.889664,76.6139038 480.001574,79.1242946 514.656788,82.7220738 C514.656788,82.7220738 519.183457,32.4471361 562.502474,3.63797881e-12 L6.70269443,3.63797881e-12 C6.70269443,3.63797881e-12 60.4451402,30.5140009 54.5752454,81.0440052 C54.5752454,81.0440052 89.3647817,77.9563588 144.598208,75.4056944 L153.342604,203.22083 L251.854751,203.22083 C254.796414,233.493189 259.511135,305.153434 259.511135,308.281354 C259.511135,317.638265 184.505432,502.735953 190.778295,469.550467 C198.609298,428.269977 83.1993774,376.961349 83.1993774,376.961349 C103.683564,371.014274 161.536279,297.595413 161.536279,297.595413 L153.342604,203.22083 L0,203.22083 L30.2091378,554.809781 C30.8270215,562.005339 36.952129,567.509404 44.1786813,567.334885 L540.178069,556.273056 C556.310206,555.910594 569.205169,542.727686 569.205169,526.604802 L569.205169,203.22083 L410.328476,203.22083 L410.328476,74.9358351 Z" id="Fill-11-Copy" fill="url(#linearGradient-13)" style="mix-blend-mode: lighten;"></path>
                            </g>
                            <g id="Group-Copy" stroke="none" stroke-width="1" fill="none" fill-rule="evenodd" transform="translate(348.793469, 964.086363) rotate(-15.000000) translate(-348.793469, -964.086363) translate(63.793469, 680.086363)">
                                <path d="M410.328476,329.57269 C429.832108,328.163112 474.185408,328.95516 491.204074,325.357381 C507.927229,321.826724 523.763856,314.094184 542.98541,307.113418 C540.688495,319.974137 539.922856,333.43896 535.718561,345.722423 C529.660615,363.38913 520.92965,380.116118 513.662801,397.366664 C510.815163,404.092364 506.234765,407.569322 500.848431,409.341362 C500.848431,409.341362 477.933007,412.764623 459.369633,412.469282 C444.191187,412.227641 319.230934,412.6975 312.568536,411.999423 C309.398524,411.677234 316.960883,348.501304 319.741359,347.185698 L319.741359,203.22083 L251.854751,203.22083 C248.375797,167.350434 243.86256,111.732525 240.773142,72.4388689 C265.703404,72.049557 292.218672,71.9555852 319.741359,72.2777744 L319.741359,203.22083 L410.328476,203.22083 C410.328476,203.22083 411.752295,326.672987 410.328476,329.57269 Z M410.328476,74.9358351 C444.889664,76.6139038 480.001574,79.1242946 514.656788,82.7220738 C514.656788,82.7220738 519.183457,32.4471361 562.502474,3.63797881e-12 L6.70269443,3.63797881e-12 C6.70269443,3.63797881e-12 60.4451402,30.5140009 54.5752454,81.0440052 C54.5752454,81.0440052 89.3647817,77.9563588 144.598208,75.4056944 L153.342604,203.22083 L251.854751,203.22083 C254.796414,233.493189 259.511135,305.153434 259.511135,308.281354 C259.511135,317.638265 184.505432,502.735953 190.778295,469.550467 C198.609298,428.269977 83.1993774,376.961349 83.1993774,376.961349 C103.683564,371.014274 161.536279,297.595413 161.536279,297.595413 L153.342604,203.22083 L0,203.22083 L30.2091378,554.809781 C30.8270215,562.005339 36.952129,567.509404 44.1786813,567.334885 L540.178069,556.273056 C556.310206,555.910594 569.205169,542.727686 569.205169,526.604802 L569.205169,203.22083 L410.328476,203.22083 L410.328476,74.9358351 Z" id="Fill-11-Copy" fill="url(#linearGradient-13)" style="mix-blend-mode: lighten;"></path>
                            </g>
                            <mask id="mask-16" fill="white">
                                <use xlink:href="#path-15"></use>
                            </mask>
                            <use id="Fill-3-Copy" stroke="none" fill="url(#linearGradient-14)" fill-rule="evenodd" opacity="0.490066964" transform="translate(428.916493, 369.664795) rotate(-20.000000) translate(-428.916493, -369.664795) " xlink:href="#path-15"></use>
                        </g>
                    </g>
                </g>
            </g>
        </g>
    </g>
</svg>